# xmcd
#
# Track frame offsets:
#	182
#	12555
#	24802
#	40240
#	53255
#	67280
#	79612
#	91115
#	101697
#	113667
#	124460
#	134177
#	143870
#	162837
#	179805
#	190017
#
# Disc length: 2666
#
# Revision: 2
# Processed by: cddbd v1.5.1PL0 Copyright (c) Steve Scherf et al.
# Submitted via: ExactAudioCopy v0.95a3
# Normalized: r0:TDELIM( - ),TSWAP
#
DISCID=dc0a6810
DTITLE=Various Artist - 16 all time country greats 03
DYEAR=1900
DGENRE=
TTITLE0=frankie laine - high noon
TTITLE1=freddy fender - wasted days and wsted nights
TTITLE2=reggy baily - your cheating heart
TTITLE3=stonewall jackson - muddy water
TTITLE4=george jones - a good year for the roses
TTITLE5=willie nelson - i can't find the time
TTITLE6=kenny rogers - me and bobby mc gee
TTITLE7=johnny dollar - wild cherry
TTITLE8=lindsay and vernon - mountain berries
TTITLE9=maxime brown - i'm in the arms of a heartache
TTITLE10=donna fargo - stick and stones
TTITLE11=david huston - living in a house full of love
TTITLE12=alabama - i want to be with you tonight
TTITLE13=razzy baily - teddybear
TTITLE14=carl perkins - daddy sang bass
TTITLE15=johnny cash - goodbye little darling goodbye
EXTD=
EXTT0=
EXTT1=
EXTT2=
EXTT3=
EXTT4=
EXTT5=
EXTT6=
EXTT7=
EXTT8=
EXTT9=
EXTT10=
EXTT11=
EXTT12=
EXTT13=
EXTT14=
EXTT15=
PLAYORDER=
